<svg width="135" height="18" viewBox="0 0 135 18" fill="none" xmlns="http://www.w3.org/2000/svg">
<g clip-path="url(#clip0_544_84)">
<path d="M18.7341 6.80203C18.6736 6.61628 18.56 6.45232 18.4073 6.33041C18.2547 6.2085 18.0696 6.13397 17.8751 6.11603L12.4541 5.62403L10.3101 0.609035C10.2327 0.429831 10.1045 0.277204 9.94139 0.169978C9.77826 0.0627515 9.58732 0.00561523 9.39211 0.00561523C9.1969 0.00561523 9.00595 0.0627515 8.84283 0.169978C8.6797 0.277204 8.55152 0.429831 8.47411 0.609035L6.33011 5.62403L0.908108 6.11603C0.713589 6.13419 0.528649 6.20893 0.376129 6.33101C0.223609 6.45309 0.110189 6.61718 0.0498796 6.803C-0.0104301 6.98882 -0.0149886 7.18824 0.036767 7.37663C0.0885227 7.56501 0.194326 7.73411 0.341108 7.86303L4.44111 11.457L3.23111 16.779C3.18851 16.9695 3.20255 17.1682 3.27151 17.3507C3.34046 17.5333 3.46132 17.6916 3.61917 17.8063C3.77703 17.921 3.965 17.987 4.15991 17.9962C4.35482 18.0054 4.54816 17.9574 4.71611 17.858L9.39211 15.063L14.0671 17.858C14.2351 17.9577 14.4285 18.006 14.6236 17.997C14.8187 17.9879 15.0069 17.922 15.1649 17.8072C15.323 17.6925 15.4439 17.5339 15.5129 17.3512C15.5819 17.1685 15.5959 16.9696 15.5531 16.779L14.3451 11.456L18.4451 7.86303C18.5924 7.73424 18.6986 7.56507 18.7507 7.37647C18.8028 7.18788 18.7984 6.98816 18.7381 6.80203H18.7341Z" fill="#FFC107"/>
<path d="M47.7341 6.80203C47.6736 6.61628 47.56 6.45232 47.4073 6.33041C47.2547 6.2085 47.0696 6.13397 46.8751 6.11603L41.4541 5.62403L39.3101 0.609035C39.2327 0.429831 39.1045 0.277204 38.9414 0.169978C38.7783 0.0627515 38.5873 0.00561523 38.3921 0.00561523C38.1969 0.00561523 38.006 0.0627515 37.8428 0.169978C37.6797 0.277204 37.5515 0.429831 37.4741 0.609035L35.3301 5.62403L29.9081 6.11603C29.7136 6.13419 29.5286 6.20893 29.3761 6.33101C29.2236 6.45309 29.1102 6.61718 29.0499 6.803C28.9896 6.98882 28.985 7.18824 29.0368 7.37663C29.0885 7.56501 29.1943 7.73411 29.3411 7.86303L33.4411 11.457L32.2311 16.779C32.1885 16.9695 32.2026 17.1682 32.2715 17.3507C32.3405 17.5333 32.4613 17.6916 32.6192 17.8063C32.777 17.921 32.965 17.987 33.1599 17.9962C33.3548 18.0054 33.5482 17.9574 33.7161 17.858L38.3921 15.063L43.0671 17.858C43.2351 17.9577 43.4285 18.006 43.6236 17.997C43.8187 17.9879 44.0069 17.922 44.1649 17.8072C44.323 17.6925 44.4439 17.5339 44.5129 17.3512C44.5819 17.1685 44.5959 16.9696 44.5531 16.779L43.3451 11.456L47.4451 7.86303C47.5924 7.73424 47.6986 7.56507 47.7507 7.37647C47.8028 7.18788 47.7984 6.98816 47.7381 6.80203H47.7341Z" fill="#FFC107"/>
<path d="M76.7341 6.80203C76.6736 6.61628 76.56 6.45232 76.4073 6.33041C76.2547 6.2085 76.0696 6.13397 75.8751 6.11603L70.4541 5.62403L68.3101 0.609035C68.2327 0.429831 68.1045 0.277204 67.9414 0.169978C67.7783 0.0627515 67.5873 0.00561523 67.3921 0.00561523C67.1969 0.00561523 67.006 0.0627515 66.8428 0.169978C66.6797 0.277204 66.5515 0.429831 66.4741 0.609035L64.3301 5.62403L58.9081 6.11603C58.7136 6.13419 58.5286 6.20893 58.3761 6.33101C58.2236 6.45309 58.1102 6.61718 58.0499 6.803C57.9896 6.98882 57.985 7.18824 58.0368 7.37663C58.0885 7.56501 58.1943 7.73411 58.3411 7.86303L62.4411 11.457L61.2311 16.779C61.1885 16.9695 61.2026 17.1682 61.2715 17.3507C61.3405 17.5333 61.4613 17.6916 61.6192 17.8063C61.777 17.921 61.965 17.987 62.1599 17.9962C62.3548 18.0054 62.5482 17.9574 62.7161 17.858L67.3921 15.063L72.0671 17.858C72.2351 17.9577 72.4285 18.006 72.6236 17.997C72.8187 17.9879 73.0069 17.922 73.1649 17.8072C73.323 17.6925 73.4439 17.5339 73.5129 17.3512C73.5819 17.1685 73.5959 16.9696 73.5531 16.779L72.3451 11.456L76.4451 7.86303C76.5924 7.73424 76.6986 7.56507 76.7507 7.37647C76.8028 7.18788 76.7984 6.98816 76.7381 6.80203H76.7341Z" fill="#FFC107"/>
<path d="M105.734 6.80203C105.674 6.61628 105.56 6.45232 105.407 6.33041C105.255 6.2085 105.07 6.13397 104.875 6.11603L99.4541 5.62403L97.3101 0.609035C97.2327 0.429831 97.1045 0.277204 96.9414 0.169978C96.7783 0.0627515 96.5873 0.00561523 96.3921 0.00561523C96.1969 0.00561523 96.006 0.0627515 95.8428 0.169978C95.6797 0.277204 95.5515 0.429831 95.4741 0.609035L93.3301 5.62403L87.9081 6.11603C87.7136 6.13419 87.5286 6.20893 87.3761 6.33101C87.2236 6.45309 87.1102 6.61718 87.0499 6.803C86.9896 6.98882 86.985 7.18824 87.0368 7.37663C87.0885 7.56501 87.1943 7.73411 87.3411 7.86303L91.4411 11.457L90.2311 16.779C90.1885 16.9695 90.2026 17.1682 90.2715 17.3507C90.3405 17.5333 90.4613 17.6916 90.6192 17.8063C90.777 17.921 90.965 17.987 91.1599 17.9962C91.3548 18.0054 91.5482 17.9574 91.7161 17.858L96.3921 15.063L101.067 17.858C101.235 17.9577 101.429 18.006 101.624 17.997C101.819 17.9879 102.007 17.922 102.165 17.8072C102.323 17.6925 102.444 17.5339 102.513 17.3512C102.582 17.1685 102.596 16.9696 102.553 16.779L101.345 11.456L105.445 7.86303C105.592 7.73424 105.699 7.56507 105.751 7.37647C105.803 7.18788 105.798 6.98816 105.738 6.80203H105.734Z" fill="#FFC107"/>
<path d="M134.734 6.80203C134.674 6.61628 134.56 6.45232 134.407 6.33041C134.255 6.2085 134.07 6.13397 133.875 6.11603L128.454 5.62403L126.31 0.609035C126.233 0.429831 126.105 0.277204 125.941 0.169978C125.778 0.0627515 125.587 0.00561523 125.392 0.00561523C125.197 0.00561523 125.006 0.0627515 124.843 0.169978C124.68 0.277204 124.552 0.429831 124.474 0.609035L122.33 5.62403L116.908 6.11603C116.714 6.13419 116.529 6.20893 116.376 6.33101C116.224 6.45309 116.11 6.61718 116.05 6.803C115.99 6.98882 115.985 7.18824 116.037 7.37663C116.089 7.56501 116.194 7.73411 116.341 7.86303L120.441 11.457L119.231 16.779C119.189 16.9695 119.203 17.1682 119.272 17.3507C119.34 17.5333 119.461 17.6916 119.619 17.8063C119.777 17.921 119.965 17.987 120.16 17.9962C120.355 18.0054 120.548 17.9574 120.716 17.858L125.392 15.063L130.067 17.858C130.235 17.9577 130.429 18.006 130.624 17.997C130.819 17.9879 131.007 17.922 131.165 17.8072C131.323 17.6925 131.444 17.5339 131.513 17.3512C131.582 17.1685 131.596 16.9696 131.553 16.779L130.345 11.456L134.445 7.86303C134.592 7.73424 134.699 7.56507 134.751 7.37647C134.803 7.18788 134.798 6.98816 134.738 6.80203H134.734Z" fill="#70726C"/>
<path d="M105.734 6.80203C105.674 6.61628 105.56 6.45232 105.407 6.33041C105.255 6.2085 105.07 6.13397 104.875 6.11603L99.4541 5.62403L97.3101 0.609035C97.2327 0.429831 97.1045 0.277204 96.9414 0.169978C96.7783 0.0627515 96.5873 0.00561523 96.3921 0.00561523C96.1969 0.00561523 96.006 0.0627515 95.8428 0.169978C95.6797 0.277204 95.5515 0.429831 95.4741 0.609035L93.3301 5.62403L87.9081 6.11603C87.7136 6.13419 87.5286 6.20893 87.3761 6.33101C87.2236 6.45309 87.1102 6.61718 87.0499 6.803C86.9896 6.98882 86.985 7.18824 87.0368 7.37663C87.0885 7.56501 87.1943 7.73411 87.3411 7.86303L91.4411 11.457L90.2311 16.779C90.1885 16.9695 90.2026 17.1682 90.2715 17.3507C90.3405 17.5333 90.4613 17.6916 90.6192 17.8063C90.777 17.921 90.965 17.987 91.1599 17.9962C91.3548 18.0054 91.5482 17.9574 91.7161 17.858L96.3921 15.063L101.067 17.858C101.235 17.9577 101.429 18.006 101.624 17.997C101.819 17.9879 102.007 17.922 102.165 17.8072C102.323 17.6925 102.444 17.5339 102.513 17.3512C102.582 17.1685 102.596 16.9696 102.553 16.779L101.345 11.456L105.445 7.86303C105.592 7.73424 105.699 7.56507 105.751 7.37647C105.803 7.18788 105.798 6.98816 105.738 6.80203H105.734Z" fill="#70726C"/>
<path d="M76.7341 6.80203C76.6736 6.61628 76.56 6.45232 76.4073 6.33041C76.2547 6.2085 76.0696 6.13397 75.8751 6.11603L70.4541 5.62403L68.3101 0.609035C68.2327 0.429831 68.1045 0.277204 67.9414 0.169978C67.7783 0.0627515 67.5873 0.00561523 67.3921 0.00561523C67.1969 0.00561523 67.006 0.0627515 66.8428 0.169978C66.6797 0.277204 66.5515 0.429831 66.4741 0.609035L64.3301 5.62403L58.9081 6.11603C58.7136 6.13419 58.5286 6.20893 58.3761 6.33101C58.2236 6.45309 58.1102 6.61718 58.0499 6.803C57.9896 6.98882 57.985 7.18824 58.0368 7.37663C58.0885 7.56501 58.1943 7.73411 58.3411 7.86303L62.4411 11.457L61.2311 16.779C61.1885 16.9695 61.2026 17.1682 61.2715 17.3507C61.3405 17.5333 61.4613 17.6916 61.6192 17.8063C61.777 17.921 61.965 17.987 62.1599 17.9962C62.3548 18.0054 62.5482 17.9574 62.7161 17.858L67.3921 15.063L72.0671 17.858C72.2351 17.9577 72.4285 18.006 72.6236 17.997C72.8187 17.9879 73.0069 17.922 73.1649 17.8072C73.323 17.6925 73.4439 17.5339 73.5129 17.3512C73.5819 17.1685 73.5959 16.9696 73.5531 16.779L72.3451 11.456L76.4451 7.86303C76.5924 7.73424 76.6986 7.56507 76.7507 7.37647C76.8028 7.18788 76.7984 6.98816 76.7381 6.80203H76.7341Z" fill="#70726C"/>
<path d="M47.7341 6.80203C47.6736 6.61628 47.56 6.45232 47.4073 6.33041C47.2547 6.2085 47.0696 6.13397 46.8751 6.11603L41.4541 5.62403L39.3101 0.609035C39.2327 0.429831 39.1045 0.277204 38.9414 0.169978C38.7783 0.0627515 38.5873 0.00561523 38.3921 0.00561523C38.1969 0.00561523 38.006 0.0627515 37.8428 0.169978C37.6797 0.277204 37.5515 0.429831 37.4741 0.609035L35.3301 5.62403L29.9081 6.11603C29.7136 6.13419 29.5286 6.20893 29.3761 6.33101C29.2236 6.45309 29.1102 6.61718 29.0499 6.803C28.9896 6.98882 28.985 7.18824 29.0368 7.37663C29.0885 7.56501 29.1943 7.73411 29.3411 7.86303L33.4411 11.457L32.2311 16.779C32.1885 16.9695 32.2026 17.1682 32.2715 17.3507C32.3405 17.5333 32.4613 17.6916 32.6192 17.8063C32.777 17.921 32.965 17.987 33.1599 17.9962C33.3548 18.0054 33.5482 17.9574 33.7161 17.858L38.3921 15.063L43.0671 17.858C43.2351 17.9577 43.4285 18.006 43.6236 17.997C43.8187 17.9879 44.0069 17.922 44.1649 17.8072C44.323 17.6925 44.4439 17.5339 44.5129 17.3512C44.5819 17.1685 44.5959 16.9696 44.5531 16.779L43.3451 11.456L47.4451 7.86303C47.5924 7.73424 47.6986 7.56507 47.7507 7.37647C47.8028 7.18788 47.7984 6.98816 47.7381 6.80203H47.7341Z" fill="#70726C"/>
<path d="M18.7341 6.80203C18.6736 6.61628 18.56 6.45232 18.4073 6.33041C18.2547 6.2085 18.0696 6.13397 17.8751 6.11603L12.4541 5.62403L10.3101 0.609035C10.2327 0.429831 10.1045 0.277204 9.94139 0.169978C9.77826 0.0627515 9.58732 0.00561523 9.39211 0.00561523C9.1969 0.00561523 9.00595 0.0627515 8.84283 0.169978C8.6797 0.277204 8.55152 0.429831 8.47411 0.609035L6.33011 5.62403L0.908108 6.11603C0.713589 6.13419 0.528649 6.20893 0.376129 6.33101C0.223609 6.45309 0.110189 6.61718 0.0498796 6.803C-0.0104301 6.98882 -0.0149886 7.18824 0.036767 7.37663C0.0885227 7.56501 0.194326 7.73411 0.341108 7.86303L4.44111 11.457L3.23111 16.779C3.18851 16.9695 3.20255 17.1682 3.27151 17.3507C3.34046 17.5333 3.46132 17.6916 3.61917 17.8063C3.77703 17.921 3.965 17.987 4.15991 17.9962C4.35482 18.0054 4.54816 17.9574 4.71611 17.858L9.39211 15.063L14.0671 17.858C14.2351 17.9577 14.4285 18.006 14.6236 17.997C14.8187 17.9879 15.0069 17.922 15.1649 17.8072C15.323 17.6925 15.4439 17.5339 15.5129 17.3512C15.5819 17.1685 15.5959 16.9696 15.5531 16.779L14.3451 11.456L18.4451 7.86303C18.5924 7.73424 18.6986 7.56507 18.7507 7.37647C18.8028 7.18788 18.7984 6.98816 18.7381 6.80203H18.7341Z" fill="#70726C"/>
<path d="M47.734 6.80203C47.6735 6.61628 47.5599 6.45232 47.4072 6.33041C47.2545 6.2085 47.0695 6.13397 46.875 6.11603L41.454 5.62403L39.31 0.609035C39.2326 0.429831 39.1044 0.277204 38.9413 0.169978C38.7781 0.0627515 38.5872 0.00561523 38.392 0.00561523C38.1968 0.00561523 38.0058 0.0627515 37.8427 0.169978C37.6796 0.277204 37.5514 0.429831 37.474 0.609035L35.33 5.62403L29.908 6.11603C29.7135 6.13419 29.5285 6.20893 29.376 6.33101C29.2235 6.45309 29.1101 6.61718 29.0498 6.803C28.9894 6.98882 28.9849 7.18824 29.0366 7.37663C29.0884 7.56501 29.1942 7.73411 29.341 7.86303L33.441 11.457L32.231 16.779C32.1884 16.9695 32.2024 17.1682 32.2714 17.3507C32.3403 17.5333 32.4612 17.6916 32.6191 17.8063C32.7769 17.921 32.9649 17.987 33.1598 17.9962C33.3547 18.0054 33.548 17.9574 33.716 17.858L38.392 15.063L43.067 17.858C43.2349 17.9577 43.4284 18.006 43.6235 17.997C43.8186 17.9879 44.0068 17.922 44.1648 17.8072C44.3228 17.6925 44.4438 17.5339 44.5128 17.3512C44.5818 17.1685 44.5958 16.9696 44.553 16.779L43.345 11.456L47.445 7.86303C47.5923 7.73424 47.6985 7.56507 47.7506 7.37647C47.8027 7.18788 47.7983 6.98816 47.738 6.80203H47.734Z" fill="#FFC107"/>
<path d="M76.734 6.80203C76.6735 6.61628 76.5599 6.45232 76.4072 6.33041C76.2545 6.2085 76.0695 6.13397 75.875 6.11603L70.454 5.62403L68.31 0.609035C68.2326 0.429831 68.1044 0.277204 67.9413 0.169978C67.7781 0.0627515 67.5872 0.00561523 67.392 0.00561523C67.1968 0.00561523 67.0058 0.0627515 66.8427 0.169978C66.6796 0.277204 66.5514 0.429831 66.474 0.609035L64.33 5.62403L58.908 6.11603C58.7135 6.13419 58.5285 6.20893 58.376 6.33101C58.2235 6.45309 58.1101 6.61718 58.0498 6.803C57.9894 6.98882 57.9849 7.18824 58.0366 7.37663C58.0884 7.56501 58.1942 7.73411 58.341 7.86303L62.441 11.457L61.231 16.779C61.1884 16.9695 61.2024 17.1682 61.2714 17.3507C61.3403 17.5333 61.4612 17.6916 61.6191 17.8063C61.7769 17.921 61.9649 17.987 62.1598 17.9962C62.3547 18.0054 62.548 17.9574 62.716 17.858L67.392 15.063L72.067 17.858C72.2349 17.9577 72.4284 18.006 72.6235 17.997C72.8186 17.9879 73.0068 17.922 73.1648 17.8072C73.3228 17.6925 73.4438 17.5339 73.5128 17.3512C73.5818 17.1685 73.5958 16.9696 73.553 16.779L72.345 11.456L76.445 7.86303C76.5923 7.73424 76.6985 7.56507 76.7506 7.37647C76.8027 7.18788 76.7983 6.98816 76.738 6.80203H76.734Z" fill="#FFC107"/>
<path d="M105.734 6.80203C105.673 6.61628 105.56 6.45232 105.407 6.33041C105.255 6.2085 105.07 6.13397 104.875 6.11603L99.454 5.62403L97.31 0.609035C97.2326 0.429831 97.1044 0.277204 96.9413 0.169978C96.7781 0.0627515 96.5872 0.00561523 96.392 0.00561523C96.1968 0.00561523 96.0058 0.0627515 95.8427 0.169978C95.6796 0.277204 95.5514 0.429831 95.474 0.609035L93.33 5.62403L87.908 6.11603C87.7135 6.13419 87.5285 6.20893 87.376 6.33101C87.2235 6.45309 87.1101 6.61718 87.0498 6.803C86.9894 6.98882 86.9849 7.18824 87.0366 7.37663C87.0884 7.56501 87.1942 7.73411 87.341 7.86303L91.441 11.457L90.231 16.779C90.1884 16.9695 90.2024 17.1682 90.2714 17.3507C90.3403 17.5333 90.4612 17.6916 90.6191 17.8063C90.7769 17.921 90.9649 17.987 91.1598 17.9962C91.3547 18.0054 91.548 17.9574 91.716 17.858L96.392 15.063L101.067 17.858C101.235 17.9577 101.428 18.006 101.624 17.997C101.819 17.9879 102.007 17.922 102.165 17.8072C102.323 17.6925 102.444 17.5339 102.513 17.3512C102.582 17.1685 102.596 16.9696 102.553 16.779L101.345 11.456L105.445 7.86303C105.592 7.73424 105.699 7.56507 105.751 7.37647C105.803 7.18788 105.798 6.98816 105.738 6.80203H105.734Z" fill="#FFC107"/>
<path d="M18.734 6.80203C18.6735 6.61628 18.5599 6.45232 18.4072 6.33041C18.2545 6.2085 18.0695 6.13397 17.875 6.11603L12.454 5.62403L10.31 0.609035C10.2326 0.429831 10.1044 0.277204 9.94127 0.169978C9.77814 0.0627515 9.5872 0.00561523 9.39199 0.00561523C9.19677 0.00561523 9.00583 0.0627515 8.8427 0.169978C8.67958 0.277204 8.5514 0.429831 8.47399 0.609035L6.32999 5.62403L0.907986 6.11603C0.713467 6.13419 0.528527 6.20893 0.376007 6.33101C0.223486 6.45309 0.110067 6.61718 0.0497575 6.803C-0.0105522 6.98882 -0.0151107 7.18824 0.036645 7.37663C0.0884007 7.56501 0.194204 7.73411 0.340986 7.86303L4.44099 11.457L3.23099 16.779C3.18839 16.9695 3.20243 17.1682 3.27139 17.3507C3.34034 17.5333 3.46119 17.6916 3.61905 17.8063C3.77691 17.921 3.96487 17.987 4.15979 17.9962C4.3547 18.0054 4.54804 17.9574 4.71599 17.858L9.39199 15.063L14.067 17.858C14.2349 17.9577 14.4284 18.006 14.6235 17.997C14.8186 17.9879 15.0068 17.922 15.1648 17.8072C15.3228 17.6925 15.4438 17.5339 15.5128 17.3512C15.5818 17.1685 15.5958 16.9696 15.553 16.779L14.345 11.456L18.445 7.86303C18.5923 7.73424 18.6985 7.56507 18.7506 7.37647C18.8027 7.18788 18.7983 6.98816 18.738 6.80203H18.734Z" fill="#FFC107"/>
</g>
<defs>
<clipPath id="clip0_544_84">
<rect width="134.783" height="18" fill="white" transform="translate(0.00012207)"/>
</clipPath>
</defs>
</svg>
