<svg xmlns="http://www.w3.org/2000/svg" width="134.783" height="18" viewBox="0 0 134.783 18"><g transform="translate(-138 -460)"><path d="M18.734,7.293a1,1,0,0,0-.859-.686l-5.421-.492L10.31,1.1a1,1,0,0,0-1.836,0L6.33,6.115.908,6.607A1,1,0,0,0,.341,8.354l4.1,3.594L3.231,17.27a1,1,0,0,0,1.485,1.079l4.676-2.795,4.675,2.795a1,1,0,0,0,1.486-1.079l-1.208-5.323,4.1-3.593a1,1,0,0,0,.293-1.061Zm0,0" transform="translate(138 459.509)" fill="#ffc107"/><path d="M18.734,7.293a1,1,0,0,0-.859-.686l-5.421-.492L10.31,1.1a1,1,0,0,0-1.836,0L6.33,6.115.908,6.607A1,1,0,0,0,.341,8.354l4.1,3.594L3.231,17.27a1,1,0,0,0,1.485,1.079l4.676-2.795,4.675,2.795a1,1,0,0,0,1.486-1.079l-1.208-5.323,4.1-3.593a1,1,0,0,0,.293-1.061Zm0,0" transform="translate(167 459.509)" fill="#ffc107"/><path d="M18.734,7.293a1,1,0,0,0-.859-.686l-5.421-.492L10.31,1.1a1,1,0,0,0-1.836,0L6.33,6.115.908,6.607A1,1,0,0,0,.341,8.354l4.1,3.594L3.231,17.27a1,1,0,0,0,1.485,1.079l4.676-2.795,4.675,2.795a1,1,0,0,0,1.486-1.079l-1.208-5.323,4.1-3.593a1,1,0,0,0,.293-1.061Zm0,0" transform="translate(196 459.509)" fill="#ffc107"/><path d="M18.734,7.293a1,1,0,0,0-.859-.686l-5.421-.492L10.31,1.1a1,1,0,0,0-1.836,0L6.33,6.115.908,6.607A1,1,0,0,0,.341,8.354l4.1,3.594L3.231,17.27a1,1,0,0,0,1.485,1.079l4.676-2.795,4.675,2.795a1,1,0,0,0,1.486-1.079l-1.208-5.323,4.1-3.593a1,1,0,0,0,.293-1.061Zm0,0" transform="translate(225 459.509)" fill="#ffc107"/><path d="M18.734,7.293a1,1,0,0,0-.859-.686l-5.421-.492L10.31,1.1a1,1,0,0,0-1.836,0L6.33,6.115.908,6.607A1,1,0,0,0,.341,8.354l4.1,3.594L3.231,17.27a1,1,0,0,0,1.485,1.079l4.676-2.795,4.675,2.795a1,1,0,0,0,1.486-1.079l-1.208-5.323,4.1-3.593a1,1,0,0,0,.293-1.061Zm0,0" transform="translate(254 459.509)" fill="#70726c"/></g></svg>