<svg xmlns="http://www.w3.org/2000/svg" width="183.121" height="52.551" viewBox="0 0 183.121 52.551">
  <g id="app-store" transform="translate(-1.224 -1.224)">
    <path id="Path_73428" data-name="Path 73428" d="M193.8,57.963a5.267,5.267,0,0,1-5.273,5.268H15.961a5.274,5.274,0,0,1-5.28-5.268V15.955a5.281,5.281,0,0,1,5.28-5.275H188.527a5.274,5.274,0,0,1,5.273,5.275V57.963Z" transform="translate(-9.457 -9.456)" fill="#fff"/>
    <path id="Path_73430" data-name="Path 73430" d="M193.8,57.963a5.267,5.267,0,0,1-5.273,5.268H15.961a5.274,5.274,0,0,1-5.28-5.268V15.955a5.281,5.281,0,0,1,5.28-5.275H188.527a5.274,5.274,0,0,1,5.273,5.275V57.963Z" transform="translate(-9.457 -9.456)"/>
    <path id="Path_73431" data-name="Path 73431" d="M177.348,93.264a7.973,7.973,0,0,1,3.8-6.69,8.166,8.166,0,0,0-6.431-3.477c-2.705-.285-5.33,1.619-6.708,1.619-1.406,0-3.528-1.591-5.815-1.545a8.562,8.562,0,0,0-7.207,4.4c-3.116,5.4-.792,13.325,2.194,17.686,1.494,2.137,3.239,4.521,5.523,4.437,2.235-.091,3.07-1.424,5.767-1.424,2.672,0,3.456,1.424,5.786,1.37,2.4-.037,3.909-2.146,5.35-4.3a17.635,17.635,0,0,0,2.447-4.983A7.713,7.713,0,0,1,177.348,93.264Zm-4.4-13.036a7.848,7.848,0,0,0,1.8-5.624,7.994,7.994,0,0,0-5.169,2.674,7.468,7.468,0,0,0-1.843,5.416A6.6,6.6,0,0,0,172.947,80.228Z" transform="translate(-135.911 -66.053)" fill="#fff"/>
    <g id="Group_3490" data-name="Group 3490" transform="translate(58.357 24.756)">
      <path id="Path_73433" data-name="Path 73433" d="M524.612,234.564h-3.123l-1.711-5.376h-5.947l-1.63,5.376H509.16l5.894-18.3h3.639Zm-5.35-7.632-1.547-4.779q-.245-.732-.923-3.448h-.055q-.272,1.168-.869,3.448l-1.521,4.779Zm20.477.871a7.474,7.474,0,0,1-1.829,5.321,5.364,5.364,0,0,1-4.068,1.738,4.073,4.073,0,0,1-3.768-1.872v6.925H527.14V225.7q0-2.115-.109-4.338h2.579l.164,2.092h.055a5.216,5.216,0,0,1,8.35-.519A7.3,7.3,0,0,1,539.739,227.8Zm-2.987.107a5.44,5.44,0,0,0-.869-3.178,3,3,0,0,0-2.553-1.3,3.049,3.049,0,0,0-1.968.719,3.336,3.336,0,0,0-1.154,1.888,3.83,3.83,0,0,0-.136.893v2.2a3.531,3.531,0,0,0,.883,2.432,2.931,2.931,0,0,0,2.294.992,3,3,0,0,0,2.579-1.276A5.618,5.618,0,0,0,536.751,227.91Zm18.167-.107a7.474,7.474,0,0,1-1.829,5.321,5.367,5.367,0,0,1-4.07,1.738,4.073,4.073,0,0,1-3.769-1.872v6.925h-2.932V225.7q0-2.115-.109-4.338h2.579l.164,2.092h.055a5.218,5.218,0,0,1,8.351-.519A7.3,7.3,0,0,1,554.919,227.8Zm-2.989.107a5.441,5.441,0,0,0-.871-3.178,3,3,0,0,0-2.55-1.3,3.062,3.062,0,0,0-1.971.719,3.336,3.336,0,0,0-1.153,1.888,3.918,3.918,0,0,0-.138.893v2.2a3.543,3.543,0,0,0,.882,2.432,2.938,2.938,0,0,0,2.3.992,3,3,0,0,0,2.579-1.276A5.617,5.617,0,0,0,551.93,227.91Zm19.961,1.52a4.89,4.89,0,0,1-1.627,3.8,7.212,7.212,0,0,1-4.986,1.6,8.7,8.7,0,0,1-4.74-1.14l.678-2.444a8.158,8.158,0,0,0,4.236,1.142,4,4,0,0,0,2.579-.747,2.44,2.44,0,0,0,.926-1.994,2.556,2.556,0,0,0-.762-1.875,7.065,7.065,0,0,0-2.525-1.411q-4.807-1.793-4.808-5.243a4.629,4.629,0,0,1,1.7-3.693,6.711,6.711,0,0,1,4.495-1.44,8.883,8.883,0,0,1,4.155.869l-.736,2.39a7.265,7.265,0,0,0-3.517-.842,3.576,3.576,0,0,0-2.426.761,2.177,2.177,0,0,0-.736,1.659,2.242,2.242,0,0,0,.843,1.792,9.5,9.5,0,0,0,2.66,1.411,9.019,9.019,0,0,1,3.476,2.225A4.637,4.637,0,0,1,571.891,229.43Zm9.72-5.863h-3.232v6.408q0,2.445,1.711,2.443a5.158,5.158,0,0,0,1.3-.136l.081,2.227a6.64,6.64,0,0,1-2.28.325,3.514,3.514,0,0,1-2.716-1.06,5.2,5.2,0,0,1-.978-3.558v-6.653h-1.926v-2.2H575.5v-2.417l2.88-.869v3.286h3.232Zm14.554,4.29a7.24,7.24,0,0,1-1.738,5,6.2,6.2,0,0,1-4.833,2.009,5.907,5.907,0,0,1-4.631-1.926,7.021,7.021,0,0,1-1.725-4.861,7.181,7.181,0,0,1,1.778-5.023,6.165,6.165,0,0,1,4.795-1.956,6.031,6.031,0,0,1,4.669,1.928A6.928,6.928,0,0,1,596.165,227.857Zm-3.04.067a5.908,5.908,0,0,0-.785-3.114,2.9,2.9,0,0,0-2.635-1.572,2.945,2.945,0,0,0-2.689,1.572,6.008,6.008,0,0,0-.787,3.169,5.893,5.893,0,0,0,.787,3.115,3.007,3.007,0,0,0,5.3-.026A5.933,5.933,0,0,0,593.126,227.924Zm12.574-3.979a5.091,5.091,0,0,0-.924-.081,2.767,2.767,0,0,0-2.39,1.169,4.4,4.4,0,0,0-.732,2.606v6.925h-2.932v-9.042q0-2.28-.085-4.155h2.554l.107,2.525h.081a4.527,4.527,0,0,1,1.466-2.092,3.545,3.545,0,0,1,2.119-.707,4.688,4.688,0,0,1,.733.054Zm13.115,3.4a6.874,6.874,0,0,1-.107,1.33h-8.8a3.828,3.828,0,0,0,1.276,2.99,4.364,4.364,0,0,0,2.877.922,9.728,9.728,0,0,0,3.559-.623l.459,2.034a11,11,0,0,1-4.425.816,6.415,6.415,0,0,1-4.822-1.8,6.672,6.672,0,0,1-1.751-4.847,7.56,7.56,0,0,1,1.631-4.968,5.62,5.62,0,0,1,4.614-2.117,4.918,4.918,0,0,1,4.32,2.117A7.123,7.123,0,0,1,618.816,227.341Zm-2.8-.761a3.97,3.97,0,0,0-.569-2.254,2.561,2.561,0,0,0-2.335-1.224,2.78,2.78,0,0,0-2.334,1.2,4.379,4.379,0,0,0-.868,2.28Z" transform="translate(-509.16 -215.99)" fill="#fff"/>
    </g>
    <g id="Group_3491" data-name="Group 3491" transform="translate(59.449 9.013)">
      <path id="Path_73434" data-name="Path 73434" d="M526.284,88.1h-1.536l-.84-2.642h-2.923l-.8,2.642h-1.5l2.9-9h1.788Zm-2.63-3.751L522.894,82c-.08-.241-.227-.8-.454-1.694h-.028c-.094.386-.227.948-.428,1.694l-.747,2.349Zm9.872-2.736L531.071,88.1h-1.4l-2.377-6.486h1.549l1.109,3.43c.187.574.346,1.121.466,1.641h.04c.107-.466.267-1.014.466-1.641l1.095-3.43Zm5.229,6.486-.107-.747h-.04a2.212,2.212,0,0,1-1.9.894,1.888,1.888,0,0,1-1.989-1.909c0-1.6,1.388-2.429,3.79-2.429v-.12c0-.854-.454-1.282-1.348-1.282a3.028,3.028,0,0,0-1.695.481l-.293-.948a4.153,4.153,0,0,1,2.23-.561c1.694,0,2.55.894,2.55,2.683v2.389a9.648,9.648,0,0,0,.093,1.549Zm-.2-3.231c-1.6,0-2.4.388-2.4,1.308a.919.919,0,0,0,.987,1.014,1.38,1.38,0,0,0,1.415-1.32Zm4.614-4.324a.862.862,0,1,1,.908-.868A.847.847,0,0,1,543.17,80.544Zm.748,7.555h-1.441V81.612h1.441Zm4,0h-1.441V78.636h1.441Zm6.126,0-.107-.747h-.04a2.212,2.212,0,0,1-1.9.894,1.888,1.888,0,0,1-1.989-1.909c0-1.6,1.388-2.429,3.79-2.429v-.12c0-.854-.454-1.282-1.348-1.282a3.028,3.028,0,0,0-1.694.481l-.294-.949a4.153,4.153,0,0,1,2.229-.561c1.695,0,2.55.894,2.55,2.683V86.55a10,10,0,0,0,.092,1.549h-1.294Zm-.2-3.231c-1.6,0-2.4.388-2.4,1.308a.919.919,0,0,0,.987,1.014,1.38,1.38,0,0,0,1.415-1.32Zm7.243,3.378a2.2,2.2,0,0,1-2.04-1.148h-.029l-.083,1h-1.228c.04-.52.054-1.109.054-1.748V78.636h1.443v3.925h.028A2.225,2.225,0,0,1,561.3,81.48c1.562,0,2.657,1.335,2.657,3.283C563.959,86.777,562.743,88.246,561.088,88.246Zm-.293-5.634a1.658,1.658,0,0,0-1.588,1.722v1.135a1.589,1.589,0,0,0,1.564,1.628c1.08,0,1.722-.88,1.722-2.282C562.491,83.508,561.823,82.612,560.8,82.612ZM567.53,88.1h-1.44V78.636h1.44Zm7.846-2.9H571.05a1.862,1.862,0,0,0,2.042,1.921,4.865,4.865,0,0,0,1.748-.307l.224,1a5.408,5.408,0,0,1-2.174.4,3.011,3.011,0,0,1-3.231-3.269c0-1.989,1.23-3.484,3.068-3.484,1.655,0,2.7,1.228,2.7,3.084A2.725,2.725,0,0,1,575.377,85.2Zm-1.322-1.027c0-1-.508-1.708-1.429-1.708a1.712,1.712,0,0,0-1.576,1.708Zm10.059,4.071a3.087,3.087,0,0,1-3.124-3.337,3.159,3.159,0,0,1,3.232-3.43,3.064,3.064,0,0,1,3.123,3.324A3.179,3.179,0,0,1,584.114,88.246Zm.055-5.713c-1.041,0-1.708.974-1.708,2.335,0,1.335.681,2.309,1.694,2.309s1.693-1.041,1.693-2.337C585.85,83.52,585.183,82.532,584.169,82.532ZM595.094,88.1h-1.44V84.374c0-1.147-.44-1.722-1.308-1.722a1.5,1.5,0,0,0-1.443,1.589V88.1h-1.44V83.466c0-.574-.015-1.188-.054-1.855h1.268l.067,1h.04a2.328,2.328,0,0,1,2.055-1.135c1.36,0,2.254,1.041,2.254,2.736V88.1Zm9.432-5.405H602.94v3.15q0,1.2.839,1.2a2.851,2.851,0,0,0,.641-.067l.04,1.095a3.21,3.21,0,0,1-1.12.161c-1.136,0-1.814-.627-1.814-2.269V82.693h-.946V81.612h.946V80.424L602.94,80v1.615h1.586Zm7.633,5.405h-1.443V84.4c0-1.161-.44-1.748-1.308-1.748a1.412,1.412,0,0,0-1.44,1.535V88.1h-1.443V78.636h1.443v3.9H608a2.183,2.183,0,0,1,1.949-1.055c1.374,0,2.214,1.067,2.214,2.763Zm7.365-2.9H615.2a1.86,1.86,0,0,0,2.041,1.921,4.861,4.861,0,0,0,1.748-.307l.226,1a5.415,5.415,0,0,1-2.176.4,3.011,3.011,0,0,1-3.231-3.269c0-1.989,1.23-3.484,3.068-3.484,1.655,0,2.7,1.228,2.7,3.084A2.814,2.814,0,0,1,619.524,85.2ZM618.2,84.175c0-1-.506-1.708-1.428-1.708a1.71,1.71,0,0,0-1.576,1.708Z" transform="translate(-518.688 -78.636)" fill="#fff"/>
    </g>
  </g>
</svg>
