<svg xmlns="http://www.w3.org/2000/svg" width="100.001" height="99.999" viewBox="0 0 100.001 99.999"><path d="M-6810,100a49.693,49.693,0,0,1-19.463-3.929,49.83,49.83,0,0,1-15.893-10.715,49.836,49.836,0,0,1-10.716-15.893A49.69,49.69,0,0,1-6860,50a49.687,49.687,0,0,1,3.929-19.462,49.838,49.838,0,0,1,10.716-15.893,49.831,49.831,0,0,1,15.893-10.716A49.69,49.69,0,0,1-6810,0a49.685,49.685,0,0,1,19.462,3.929,49.841,49.841,0,0,1,15.893,10.716,49.835,49.835,0,0,1,10.716,15.893A49.687,49.687,0,0,1-6760,50a49.69,49.69,0,0,1-3.929,19.463,49.833,49.833,0,0,1-10.716,15.893,49.839,49.839,0,0,1-15.893,10.715A49.688,49.688,0,0,1-6810,100Zm-14.813-47.937a2.175,2.175,0,0,0-1.547.64A2.175,2.175,0,0,0-6827,54.25a2.17,2.17,0,0,0,.64,1.546l15.312,15.312a2.173,2.173,0,0,0,1.546.64,2.17,2.17,0,0,0,1.546-.64L-6792.64,55.8a2.192,2.192,0,0,0,0-3.094,2.175,2.175,0,0,0-1.547-.64,2.173,2.173,0,0,0-1.546.64l-11.578,11.58v-34.1A2.19,2.19,0,0,0-6809.5,28a2.19,2.19,0,0,0-2.188,2.186v34.1l-11.578-11.58A2.173,2.173,0,0,0-6824.812,52.062Z" transform="translate(6860.001)" fill="#474747"/></svg>