<svg id="Google_Play" xmlns="http://www.w3.org/2000/svg" xmlns:xlink="http://www.w3.org/1999/xlink" width="177.07" height="52.55" viewBox="0 0 177.07 52.55">
  <defs>
    <linearGradient id="linear-gradient" x1="0.849" y1="0.31" x2="0.361" y2="0.799" gradientUnits="objectBoundingBox">
      <stop offset="0" stop-color="#00a0ff"/>
      <stop offset="0.007" stop-color="#00a1ff"/>
      <stop offset="0.26" stop-color="#00beff"/>
      <stop offset="0.512" stop-color="#00d2ff"/>
      <stop offset="0.76" stop-color="#00dfff"/>
      <stop offset="1" stop-color="#00e3ff"/>
    </linearGradient>
    <linearGradient id="linear-gradient-2" x1="0.97" y1="0.436" x2="-1.177" y2="0.436" gradientUnits="objectBoundingBox">
      <stop offset="0" stop-color="#ffe000"/>
      <stop offset="0.409" stop-color="#ffbd00"/>
      <stop offset="0.775" stop-color="orange"/>
      <stop offset="1" stop-color="#ff9c00"/>
    </linearGradient>
    <linearGradient id="linear-gradient-3" x1="0.761" y1="0.213" x2="-0.443" y2="1.411" gradientUnits="objectBoundingBox">
      <stop offset="0" stop-color="#ff3a44"/>
      <stop offset="1" stop-color="#c31162"/>
    </linearGradient>
    <linearGradient id="linear-gradient-4" x1="-0.17" y1="-0.275" x2="0.367" y2="0.26" gradientUnits="objectBoundingBox">
      <stop offset="0" stop-color="#32a071"/>
      <stop offset="0.068" stop-color="#2da771"/>
      <stop offset="0.476" stop-color="#15cf74"/>
      <stop offset="0.801" stop-color="#06e775"/>
      <stop offset="1" stop-color="#00f076"/>
    </linearGradient>
    <linearGradient id="linear-gradient-5" x1="0.624" y1="0.038" x2="-0.364" y2="1.027" gradientUnits="objectBoundingBox">
      <stop offset="0" stop-color="#cc2e36"/>
      <stop offset="1" stop-color="#9c0e4e"/>
    </linearGradient>
    <linearGradient id="linear-gradient-6" x1="5.233" y1="-7.998" x2="-1.121" y2="-1.634" gradientUnits="objectBoundingBox">
      <stop offset="0" stop-color="#008de0"/>
      <stop offset="0.007" stop-color="#008de0"/>
      <stop offset="0.26" stop-color="#00a7e0"/>
      <stop offset="0.512" stop-color="#00b8e0"/>
      <stop offset="0.76" stop-color="#00c4e0"/>
      <stop offset="1" stop-color="#00c7e0"/>
    </linearGradient>
    <linearGradient id="linear-gradient-7" x1="0.943" y1="-0.195" x2="-2.414" y2="-0.195" gradientUnits="objectBoundingBox">
      <stop offset="0" stop-color="#e0c500"/>
      <stop offset="0.409" stop-color="#e0a600"/>
      <stop offset="0.775" stop-color="#e09100"/>
      <stop offset="1" stop-color="#e08900"/>
    </linearGradient>
    <linearGradient id="linear-gradient-8" x1="0.944" y1="0.999" x2="-2.414" y2="0.999" gradientUnits="objectBoundingBox">
      <stop offset="0" stop-color="#ffe840"/>
      <stop offset="0.409" stop-color="#ffce40"/>
      <stop offset="0.775" stop-color="#ffbc40"/>
      <stop offset="1" stop-color="#ffb540"/>
    </linearGradient>
    <linearGradient id="linear-gradient-9" x1="5.219" y1="0.865" x2="-1.113" y2="6.933" gradientUnits="objectBoundingBox">
      <stop offset="0" stop-color="#40b8ff"/>
      <stop offset="0.007" stop-color="#40b9ff"/>
      <stop offset="0.26" stop-color="#40ceff"/>
      <stop offset="0.512" stop-color="#40ddff"/>
      <stop offset="0.76" stop-color="#40e7ff"/>
      <stop offset="1" stop-color="#40eaff"/>
    </linearGradient>
    <linearGradient id="linear-gradient-10" x1="-0.137" y1="-0.184" x2="0.304" y2="0.257" gradientUnits="objectBoundingBox">
      <stop offset="0" stop-color="#65b895"/>
      <stop offset="0.068" stop-color="#62bd95"/>
      <stop offset="0.476" stop-color="#50db97"/>
      <stop offset="0.801" stop-color="#44ed98"/>
      <stop offset="1" stop-color="#40f498"/>
    </linearGradient>
  </defs>
  <path id="Path_73435" data-name="Path 73435" d="M170.512,52.55H6.558A6.583,6.583,0,0,1,0,45.981V6.569A6.583,6.583,0,0,1,6.558,0H170.512a6.583,6.583,0,0,1,6.558,6.569V45.981a6.583,6.583,0,0,1-6.558,6.569"/>
  <path id="Path_73437" data-name="Path 73437" d="M926.582,157.2a3.561,3.561,0,0,1-.977,2.631A3.813,3.813,0,0,1,922.713,161a4.118,4.118,0,1,1,0-8.235,4.053,4.053,0,0,1,1.616.331,3.245,3.245,0,0,1,1.231.881l-.692.693a2.655,2.655,0,0,0-2.154-.935,3.148,3.148,0,1,0,2.2,5.417,2.481,2.481,0,0,0,.66-1.6h-2.858v-.947h3.814a3.367,3.367,0,0,1,.055.595" transform="translate(-864.387 -143.744)" fill="#fff"/>
  <path id="Path_73438" data-name="Path 73438" d="M924.493,155.108h-.131a3.428,3.428,0,0,1-.939,2.538h0a3.681,3.681,0,0,1-2.8,1.126,3.986,3.986,0,1,1,0-7.972,3.924,3.924,0,0,1,1.564.32,3.119,3.119,0,0,1,1.182.845l.1-.085-.093-.093-.692.694.093.092.1-.084a2.79,2.79,0,0,0-2.255-.982,3.28,3.28,0,1,0,2.291,5.641,2.615,2.615,0,0,0,.7-1.678l.012-.143h-2.87v-.684h3.682v-.131l-.129.023a3.206,3.206,0,0,1,.053.572h.262a3.482,3.482,0,0,0-.057-.618l-.019-.108h-4.054v1.21h2.989v-.131l-.131-.011a2.354,2.354,0,0,1-.622,1.515,3,3,0,0,1-4.163,0,3.172,3.172,0,0,1,0-4.358,2.855,2.855,0,0,1,2.058-.838,2.523,2.523,0,0,1,2.054.888l.092.11.793-.795.085-.085-.077-.092a3.37,3.37,0,0,0-1.279-.917,4.183,4.183,0,0,0-1.667-.341,4.249,4.249,0,1,0,0,8.5,3.948,3.948,0,0,0,2.986-1.207l-.095-.091.093.093a3.694,3.694,0,0,0,1.016-2.724h-.131m6.046-3.293h-3.584v2.5h3.232v.947h-3.232v2.5h3.584v.968h-4.594v-7.882h4.594v.968" transform="translate(-862.297 -141.651)" fill="#fff"/>
  <path id="Path_73439" data-name="Path 73439" d="M1080.472,154.63V154.5h-3.715v2.762h3.232v.684h-3.232v2.762h3.584v.706h-4.332v-7.62h4.332v.837h.131v0h.131v-1.1h-4.857v8.145h4.857v-1.231h-3.584v-2.237h3.232V157h-3.232v-2.237h3.584v-.131h-.131m4.264,6.914h-1.012V154.63h-2.2v-.968h5.408v.968h-2.2v6.914" transform="translate(-1012.232 -144.465)" fill="#fff"/>
  <path id="Path_73440" data-name="Path 73440" d="M1174.764,161.544v-.131h-.881V154.5h-2.2v-.706h5.146v.706h-2.2v7.045h.131v0h.131v-6.783h2.2V153.53h-5.67v1.231h2.2v6.914h1.274v-.131h-.131m6.111,0v-7.883h1.011v7.882h-1.011" transform="translate(-1102.258 -144.465)" fill="#fff"/>
  <path id="Path_73441" data-name="Path 73441" d="M1329.42,161.544h.131v-7.751h.748v7.62h-.88v.131h0v.131h1.142V153.53h-1.273v8.145h.131v-.131m5.5,0H1333.9V154.63h-2.2v-.968h5.408v.968h-2.2v6.914" transform="translate(-1250.804 -144.465)" fill="#fff"/>
  <path id="Path_73442" data-name="Path 73442" d="M1371.356,160.823v-.131h-.881v-6.914h-2.2v-.706h5.145v.706h-2.2v7.046h.131v0h.131V154.04h2.2v-1.231h-5.67v1.231h2.2v6.914h1.274v-.131h-.131m7.412-1.678a3.023,3.023,0,0,0,4.276,0,3.363,3.363,0,0,0,0-4.525,3.023,3.023,0,0,0-4.276,0,3.367,3.367,0,0,0,0,4.525Zm5.024.66a4.081,4.081,0,0,1-5.77,0,4.263,4.263,0,0,1,0-5.845,4.067,4.067,0,0,1,5.765.005,4.25,4.25,0,0,1,.005,5.84Z" transform="translate(-1287.243 -143.744)" fill="#fff"/>
  <path id="Path_73443" data-name="Path 73443" d="M1517.665,157.051l-.093.092a3.154,3.154,0,0,0,4.462,0,3.494,3.494,0,0,0,0-4.71,3.154,3.154,0,0,0-4.462,0,3.5,3.5,0,0,0,0,4.71l.093-.092.094-.092a3.236,3.236,0,0,1,0-4.341,2.892,2.892,0,0,1,4.089,0,3.234,3.234,0,0,1,0,4.341,2.892,2.892,0,0,1-4.089,0Zm5.024.66-.094-.091a3.951,3.951,0,0,1-5.583,0l0,0,0,0a4.133,4.133,0,0,1,0-5.663,3.937,3.937,0,0,1,5.577.006,4.119,4.119,0,0,1,.005,5.657l.094.091.094.091a4.381,4.381,0,0,0-.005-6.023,4.2,4.2,0,0,0-5.954-.005h0a4.4,4.4,0,0,0,0,6.029l0,0,0,0a4.212,4.212,0,0,0,5.959,0Zm2.579,1.019v-7.883h1.231l3.825,6.132h.043l-.043-1.519v-4.613h1.012v7.882h-1.055l-4-6.429h-.044l.044,1.52v4.91h-1.01" transform="translate(-1426.141 -141.651)" fill="#fff"/>
  <path id="Path_73444" data-name="Path 73444" d="M957.032,161.544h.131v-7.751h1.027l3.825,6.132h.251l-.047-1.652v-4.48h.75v7.62h-.852l-4-6.429h-.251l.047,1.653v4.776h-.879v.131h0v.131h1.141v-5.043l-.043-1.521-.131,0v.131h.044v-.131l-.111.07,4.04,6.491h1.259V153.53h-1.274v4.746L962,159.8l.131,0v-.131h-.044v.131l.111-.07-3.863-6.194H956.9v8.145h.131v-.131m41.133,22.334h2.448V167.454h-2.448Zm22.044-10.507-2.806,7.12h-.084l-2.912-7.12h-2.636l4.366,9.952-2.489,5.536h2.554l6.729-15.488Zm-13.88,8.642c-.8,0-1.92-.4-1.92-1.395,0-1.268,1.393-1.754,2.594-1.754a4.35,4.35,0,0,1,2.236.55A2.969,2.969,0,0,1,1006.33,182.012Zm.3-9a4.594,4.594,0,0,0-4.366,2.515l2.172.908a2.319,2.319,0,0,1,2.236-1.2,2.358,2.358,0,0,1,2.573,2.113v.169a5.405,5.405,0,0,0-2.552-.634c-2.341,0-4.726,1.289-4.726,3.7a3.791,3.791,0,0,0,4.071,3.613,3.453,3.453,0,0,0,3.123-1.606h.084v1.268h2.362v-6.3c0-2.915-2.172-4.543-4.978-4.543ZM991.5,175.37h-3.481v-5.63H991.5a2.815,2.815,0,1,1,0,5.63Zm-.063-7.915h-5.864v16.423h2.446v-6.222h3.418a5.108,5.108,0,1,0,0-10.2Zm-31.979,14.561a3.4,3.4,0,0,1,0-6.773,3.414,3.414,0,0,1,0,6.773Zm2.81-7.725h-.085a3.864,3.864,0,0,0-2.937-1.249,5.593,5.593,0,0,0,0,11.175,3.8,3.8,0,0,0,2.937-1.27h.085v.8c0,2.138-1.141,3.281-2.979,3.281a3.089,3.089,0,0,1-2.811-1.99l-2.134.889a5.317,5.317,0,0,0,4.945,3.3c2.874,0,5.3-1.694,5.3-5.821V173.38h-2.324Zm4.015,9.588h2.451V167.454h-2.451Zm6.065-5.418a3.062,3.062,0,0,1,2.916-3.259,2.157,2.157,0,0,1,2.07,1.186Zm7.607-1.862a5.186,5.186,0,0,0-4.776-3.556,5.306,5.306,0,0,0-5.261,5.587,5.463,5.463,0,0,0,5.536,5.588,5.548,5.548,0,0,0,4.649-2.476l-1.9-1.27a3.185,3.185,0,0,1-2.747,1.545,2.838,2.838,0,0,1-2.7-1.693l7.459-3.09Zm-59.427-1.841v2.37h5.663a4.95,4.95,0,0,1-1.289,2.984,5.791,5.791,0,0,1-4.374,1.736,6.308,6.308,0,0,1,0-12.614,6.03,6.03,0,0,1,4.268,1.693l1.669-1.672a8.247,8.247,0,0,0-5.938-2.392,8.678,8.678,0,1,0,0,17.355,7.674,7.674,0,0,0,8.093-7.979,7.7,7.7,0,0,0-.127-1.482Zm14.531,7.26a3.4,3.4,0,1,1,3.148-3.386A3.23,3.23,0,0,1,935.059,182.015Zm0-8.974a5.588,5.588,0,1,0,5.6,5.587A5.5,5.5,0,0,0,935.059,173.041Zm12.215,8.974a3.4,3.4,0,1,1,3.148-3.386,3.23,3.23,0,0,1-3.148,3.386Zm0-8.974a5.588,5.588,0,1,0,5.6,5.587,5.5,5.5,0,0,0-5.6-5.587Z" transform="translate(-857.905 -144.465)" fill="#fff"/>
  <path id="Path_73445" data-name="Path 73445" d="M222.244,162.56a2.54,2.54,0,0,0-.7,1.942v28.671a2.633,2.633,0,0,0,.607,1.846l.1.093h0a1.685,1.685,0,0,0,1.159.427,3.017,3.017,0,0,0,1.469-.441l19.039-10.835,6.54-3.722a2.448,2.448,0,0,0,1.375-1.7v0a2.447,2.447,0,0,0-1.375-1.7l-6.54-3.722-19.038-10.835a3.023,3.023,0,0,0-1.472-.442,1.687,1.687,0,0,0-1.158.426Z" transform="translate(-208.461 -152.561)" fill="#00c1ff"/>
  <path id="Path_73446" data-name="Path 73446" d="M.82-519.014l-.1-.093a2.633,2.633,0,0,1-.607-1.846v-28.671a2.54,2.54,0,0,1,.7-1.942l16.251,16.277L.82-519.014" transform="translate(12.965 561.565)" fill="url(#linear-gradient)"/>
  <path id="Path_73447" data-name="Path 73447" d="M6.1-173.713.686-179.141,6.1-184.567l6.54,3.722a2.447,2.447,0,0,1,1.375,1.7v0a2.448,2.448,0,0,1-1.375,1.7L6.1-173.713" transform="translate(29.348 205.417)" fill="url(#linear-gradient-2)"/>
  <path id="Path_73448" data-name="Path 73448" d="M1.6-266.314a1.685,1.685,0,0,1-1.159-.427h0l16.249-16.276,5.418,5.427L3.068-266.755a3.017,3.017,0,0,1-1.469.441" transform="translate(13.345 309.293)" fill="url(#linear-gradient-3)"/>
  <path id="Path_73449" data-name="Path 73449" d="M16.441-266.9.19-283.178a1.687,1.687,0,0,1,1.158-.426,3.022,3.022,0,0,1,1.472.442l19.038,10.835L16.441-266.9" transform="translate(13.593 293.178)" fill="url(#linear-gradient-4)"/>
  <path id="Path_73450" data-name="Path 73450" d="M2.047-183.626a1.689,1.689,0,0,1-1.159-.427h0l0,0L.8-184.139l-.008-.009.1-.1a1.684,1.684,0,0,0,1.159.427,3.017,3.017,0,0,0,1.469-.441l19.039-10.835.122.122-.124.07L3.516-184.067a3.131,3.131,0,0,1-1.349.438l-.12,0" transform="translate(12.898 226.797)" fill="url(#linear-gradient-5)"/>
  <path id="Path_73451" data-name="Path 73451" d="M.722-33.268a2.632,2.632,0,0,1-.607-1.846v-.191a2.633,2.633,0,0,0,.607,1.846l.1.093-.1.1" transform="translate(12.965 75.917)" fill="url(#linear-gradient-6)"/>
  <path id="Path_73452" data-name="Path 73452" d="M.764-88.579.642-88.7l6.54-3.722a2.448,2.448,0,0,0,1.375-1.7,1.629,1.629,0,0,1-.152.678,2.817,2.817,0,0,1-1.223,1.218L.764-88.579" transform="translate(34.81 120.405)" fill="url(#linear-gradient-7)"/>
  <path id="Path_73453" data-name="Path 73453" d="M8.548-89.136a2.447,2.447,0,0,0-1.375-1.7L.633-94.562l.122-.122h0l6.418,3.652a2.307,2.307,0,0,1,1.375,1.9" transform="translate(34.818 115.411)" fill="url(#linear-gradient-8)"/>
  <path id="Path_73454" data-name="Path 73454" d="M.115-32.72v-.2c0-.072,0-.143.006-.212v0a.009.009,0,0,1,0,0v-.008a2.505,2.505,0,0,1,.6-1.612l.1.1a2.54,2.54,0,0,0-.7,1.942" transform="translate(12.965 44.661)" fill="url(#linear-gradient-9)"/>
  <path id="Path_73455" data-name="Path 73455" d="M22.553-183.434,3.515-194.269a3.023,3.023,0,0,0-1.472-.442,1.687,1.687,0,0,0-1.158.426l-.1-.1q.045-.048.093-.092l0,0a1.686,1.686,0,0,1,1.147-.427h.01a3.022,3.022,0,0,1,1.472.442l19.161,10.9h0l-.122.122" transform="translate(12.899 204.284)" fill="url(#linear-gradient-10)"/>
</svg>
