<svg xmlns="http://www.w3.org/2000/svg" width="27.218" height="28" viewBox="0 0 27.218 28"><g transform="translate(-6.675)"><path d="M33.076,19.036a3.478,3.478,0,0,0,.814-2.325,3.571,3.571,0,0,0-.761-2.014,3.129,3.129,0,0,0-.744-3.6c-.931-.849-2.512-1.23-4.7-1.124a18.375,18.375,0,0,0-2.881.369H24.8c-.293.053-.6.117-.919.187a10.215,10.215,0,0,1,.732-3.4c.82-2.494.773-4.4-.152-5.68A3.722,3.722,0,0,0,21.477,0a1.47,1.47,0,0,0-1.13.515,3.939,3.939,0,0,0-.492,2.793c-.773,2.073-2.939,7.155-4.772,8.566a.627.627,0,0,0-.094.082,6.29,6.29,0,0,0-1.148,1.721,2.416,2.416,0,0,0-1.159-.293H9.111a2.438,2.438,0,0,0-2.436,2.436v9.515a2.438,2.438,0,0,0,2.436,2.436h3.572a2.431,2.431,0,0,0,1.405-.445l1.376.164a58.953,58.953,0,0,0,7.805.427c.7.053,1.353.082,1.962.082a13.137,13.137,0,0,0,2.723-.246,5.092,5.092,0,0,0,3.636-2.26,3.584,3.584,0,0,0,.4-2.243,3.735,3.735,0,0,0,1.329-3.039A3.955,3.955,0,0,0,33.076,19.036ZM9.111,26.191a.856.856,0,0,1-.855-.855V15.815a.856.856,0,0,1,.855-.855h3.572a.856.856,0,0,1,.855.855V25.33a.856.856,0,0,1-.855.855H9.111Zm22.467-7.84a.787.787,0,0,0-.105.954,2.436,2.436,0,0,1,.269.978,2.343,2.343,0,0,1-1.1,2.026.8.8,0,0,0-.269.9,2.068,2.068,0,0,1-.158,1.511,3.663,3.663,0,0,1-2.588,1.487,15.425,15.425,0,0,1-4.269.129h-.082a57.8,57.8,0,0,1-7.612-.416h-.006l-.591-.07a2.481,2.481,0,0,0,.053-.515V15.815a2.477,2.477,0,0,0-.111-.726A4.894,4.894,0,0,1,16.1,13.081C18.725,11,21.3,3.964,21.407,3.66a.741.741,0,0,0,.035-.392,3.659,3.659,0,0,1,.076-1.7,2.1,2.1,0,0,1,1.651.79c.6.826.574,2.3-.07,4.257-.984,2.98-1.066,4.55-.287,5.24a1.276,1.276,0,0,0,1.276.228c.357-.082.7-.152,1.019-.2l.076-.018c1.8-.392,5.018-.632,6.136.386a1.685,1.685,0,0,1,.2,2.137.783.783,0,0,0,.141,1.019,2.218,2.218,0,0,1,.65,1.364A2.174,2.174,0,0,1,31.577,18.35Z" fill="#929292"/></g></svg>